#N canvas 181 571 515 456 10;
#X obj 82 329 dac~;
#X obj 53 61 notein;
#X obj 52 90 pack;
#X msg 51 118 midi 144 \$1 \$2;
#X text 116 61 receive note-on messages;
#X text 116 90 pack note number and velocity;
#X text 166 117 send to csound (144 = note on messages);
#X text 21 29 SET OPTION -+rtmidi=null -M0 IN YOUR CSD FILE!;
#X obj 76 276 csound6~ 07_midi.csd;
#X floatatom 201 191 5 0 0 0 - - -, f 5;
#X msg 202 214 chnset detune \$1;
#X text 251 191 maximum detune in cent (up and down);
#X obj 201 153 ctlin 1 1;
#X connect 1 0 2 0;
#X connect 1 1 2 1;
#X connect 2 0 3 0;
#X connect 3 0 8 0;
#X connect 8 0 0 0;
#X connect 8 1 0 1;
#X connect 9 0 10 0;
#X connect 10 0 8 0;
#X connect 12 0 9 0;
