#N canvas 598 279 450 300 10;
#X obj 173 212 dac~;
#X obj 140 40 adc~;
#X msg 229 60 reset;
#X msg 298 69 run 0;
#X msg 297 37 run 1;
#X msg 250 165 \; \$1 \$2;
#X floatatom 252 233 5 0 0 0 - - -, f 5;
#X obj 252 209 r testsig;
#X obj 154 130 csound6~ livein.csd;
#X connect 1 0 8 0;
#X connect 1 1 8 1;
#X connect 2 0 8 0;
#X connect 3 0 8 0;
#X connect 4 0 8 0;
#X connect 7 0 6 0;
#X connect 8 0 0 0;
#X connect 8 1 0 1;
#X connect 8 2 5 0;
