#N canvas 558 321 450 300 10;
#X obj 144 202 dac~;
#X obj 150 101 adc~;
#X text 133 65 Be careful with feedback!;
#X obj 143 146 csound6~ live.csd;
#X connect 1 0 3 0;
#X connect 1 1 3 1;
#X connect 3 0 0 0;
#X connect 3 1 0 1;
